#!OML:ASF G:\JayActor3\Patient Classification 1\Patient 1\Session 6\male.ASF
:FULLY-SPECIFIED
:DEGREES
1053
root 5.63402 16.4722 0.261585 176.634 -43.2019 -176.531
lowerback -0.6759 -1.10934 2.69178
upperback 3.97839 -1.71773 1.08304
thorax 4.43887 -0.825388 -0.469684
lowerneck -11.3827 0.463643 1.06498
upperneck 32.062 -0.85819 -2.11622
head 12.4752 -1.20114 -1.26328
rclavicle 4.93856e-014 -2.08724e-015
rhumerus -39.6641 24.6028 -95.3719
rradius 92.5216
rwrist -54.8111
rhand -19.6484 -13.7768
rfingers 7.12502
rthumb 6.67928 -43.6514
lclavicle 4.93856e-014 -2.08724e-015
lhumerus -26.3035 4.66671 83.7891
lradius 18.6178
lwrist 9.66313
lhand -14.8064 10.036
lfingers 7.12502
lthumb 11.3514 39.7088
rfemur -12.8919 6.68322 21.7837
rtibia 35.374
rfoot -21.193 -7.81431
rtoes 1.31679
lfemur -2.6253 6.88177 -15.8711
ltibia 21.7902
lfoot -17.9774 10.3188
ltoes -2.90634
1054
root 5.63131 16.473 0.266349 176.508 -43.2409 -176.294
lowerback -0.685583 -1.10585 2.83061
upperback 3.96772 -1.71891 1.10957
thorax 4.43066 -0.82183 -0.519985
lowerneck -11.3885 0.451728 1.0652
upperneck 32.0533 -0.878769 -2.09832
head 12.4725 -1.20701 -1.25897
rclavicle -1.59699e-013 2.18663e-015
rhumerus -39.6537 24.5689 -95.3801
rradius 92.5174
rwrist -54.8075
rhand -19.5844 -13.7681
rfingers 7.12502
rthumb 6.74104 -43.6408
lclavicle -1.59699e-013 2.18663e-015
lhumerus -26.3835 4.86225 83.6469
lradius 18.4362
lwrist 9.4668
lhand -14.7621 10.055
lfingers 7.12502
lthumb 11.3942 39.7255
rfemur -12.8914 6.74093 21.9589
rtibia 35.2855
rfoot -21.1673 -7.93416
rtoes 1.29276
lfemur -2.78251 6.90065 -15.6987
ltibia 21.9605
lfoot -18.022 10.2507
ltoes -2.93495
1055
root 5.62802 16.4735 0.270751 176.408 -43.2736 -176.106
lowerback -0.688937 -1.10384 2.93385
upperback 3.95484 -1.72018 1.13059
thorax 4.41724 -0.819493 -0.555913
lowerneck -11.3892 0.443275 1.06183
upperneck 32.0522 -0.893452 -2.08577
head 12.4721 -1.21203 -1.25551
rclavicle 7.21837e-015 -1.40143e-014
rhumerus -39.6597 24.5441 -95.3911
rradius 92.5139
rwrist -54.802
rhand -19.5106 -13.7478
rfingers 7.12502
rthumb 6.81222 -43.6182
lclavicle 7.21837e-015 -1.40143e-014
lhumerus -26.472 5.07234 83.5055
lradius 18.2775
lwrist 9.27153
lhand -14.7281 10.0862
lfingers 7.12502
lthumb 11.427 39.7548
rfemur -12.8825 6.78773 22.0934
rtibia 35.2026
rfoot -21.1408 -8.03421
rtoes 1.25911
lfemur -2.91958 6.91937 -15.5666
ltibia 22.1214
lfoot -18.0675 10.1931
ltoes -2.95993
1056
root 5.62424 16.4739 0.274768 176.334 -43.3011 -175.968
lowerback -0.686524 -1.10191 3.00026
upperback 3.94112 -1.71956 1.14382
thorax 4.40038 -0.81734 -0.579086
lowerneck -11.3824 0.436431 1.05202
upperneck 32.0547 -0.905655 -2.0725
head 12.4715 -1.21708 -1.25039
rclavicle 3.34331e-014 -5.1684e-015
rhumerus -39.6771 24.5242 -95.4029
rradius 92.5111
rwrist -54.7949
rhand -19.4209 -13.7021
rfingers 7.12502
rthumb 6.89887 -43.5697
lclavicle 3.34331e-014 -5.1684e-015
lhumerus -26.5685 5.27293 83.3711
lradius 18.1482
lwrist 9.09705
lhand -14.7094 10.1205
lfingers 7.12502
lthumb 11.445 39.7881
rfemur -12.8727 6.82544 22.1852
rtibia 35.141
rfoot -21.1227 -8.11482
rtoes 1.22068
lfemur -3.01961 6.93729 -15.4772
ltibia 22.2419
lfoot -18.101 10.1478
ltoes -2.99044
1057
root 5.61953 16.474 0.278336 176.31 -43.3233 -175.929
lowerback -0.679737 -1.09767 3.00251
upperback 3.93329 -1.71265 1.1367
thorax 4.38826 -0.813689 -0.587127
lowerneck -11.374 0.428059 1.03872
upperneck 32.0614 -0.920455 -2.0581
head 12.4724 -1.22384 -1.24473
rclavicle 1.00809e-013 -1.31198e-014
rhumerus -39.6985 24.5027 -95.4149
rradius 92.5068
rwrist -54.7847
rhand -19.3513 -13.6718
rfingers 7.12502
rthumb 6.96605 -43.5372
lclavicle 1.00809e-013 -1.31198e-014
lhumerus -26.6655 5.4521 83.2453
lradius 18.0474
lwrist 8.9478
lhand -14.6994 10.1598
lfingers 7.12502
lthumb 11.4547 39.8269
rfemur -12.8526 6.84728 22.1962
rtibia 35.1032
rfoot -21.1136 -8.16431
rtoes 1.18284
lfemur -3.0693 6.94509 -15.4694
ltibia 22.3209
lfoot -18.1315 10.1228
ltoes -3.00632
1058
root 5.61471 16.474 0.28158 176.307 -43.3568 -175.925
lowerback -0.673115 -1.09613 2.97869
upperback 3.92625 -1.70813 1.1234
thorax 4.37741 -0.81193 -0.58709
lowerneck -11.3626 0.417771 1.01925
upperneck 32.0699 -0.938217 -2.04006
head 12.4733 -1.23235 -1.23703
rclavicle 2.96935e-015 2.13694e-014
rhumerus -39.7228 24.4781 -95.425
rradius 92.5023
rwrist -54.7726
rhand -19.299 -13.6514
rfingers 7.12502
rthumb 7.01651 -43.5151
lclavicle 2.96935e-015 2.13694e-014
lhumerus -26.7604 5.60352 83.1317
lradius 17.9709
lwrist 8.82986
lhand -14.7101 10.188
lfingers 7.12502
lthumb 11.4444 39.8556
rfemur -12.8349 6.85802 22.1781
rtibia 35.0856
rfoot -21.1184 -8.2055
rtoes 1.15282
lfemur -3.09374 6.94815 -15.4905
ltibia 22.3615
lfoot -18.1469 10.0963
ltoes -3.02144
1059
root 5.61015 16.4742 0.284719 176.306 -43.4047 -175.918
lowerback -0.671897 -1.09922 2.95597
upperback 3.91942 -1.7101 1.1112
thorax 4.36968 -0.813321 -0.586947
lowerneck -11.3501 0.406373 0.99568
upperneck 32.0773 -0.95766 -2.01853
head 12.4736 -1.24164 -1.22747
rclavicle 3.87506e-014 1.0138e-014
rhumerus -39.7436 24.4533 -95.4347
rradius 92.4964
rwrist -54.7596
rhand -19.2883 -13.6559
rfingers 7.12502
rthumb 7.02688 -43.5193
lclavicle 3.87506e-014 1.0138e-014
lhumerus -26.8505 5.7335 83.0275
lradius 17.9207
lwrist 8.74156
lhand -14.7284 10.2052
lfingers 7.12502
lthumb 11.4267 39.8738
rfemur -12.8277 6.86137 22.1625
rtibia 35.0823
rfoot -21.1317 -8.25125
rtoes 1.12432
lfemur -3.11138 6.94686 -15.5088
ltibia 22.3738
lfoot -18.1465 10.062
ltoes -3.03538
1060
root 5.60541 16.4744 0.287637 176.325 -43.4693 -175.947
lowerback -0.671326 -1.10687 2.90761
upperback 3.9159 -1.71711 1.09186
thorax 4.36599 -0.817867 -0.580105
lowerneck -11.336 0.393403 0.966817
upperneck 32.0839 -0.979201 -1.99351
head 12.4732 -1.25203 -1.21589
rclavicle -7.27925e-014 2.09718e-014
rhumerus -39.7655 24.4276 -95.4428
rradius 92.4914
rwrist -54.7497
rhand -19.3051 -13.6707
rfingers 7.12502
rthumb 7.01064 -43.5346
lclavicle -7.27925e-014 2.09718e-014
lhumerus -26.9362 5.82529 82.9391
lradius 17.8982
lwrist 8.70317
lhand -14.7451 10.2223
lfingers 7.12502
lthumb 11.4106 39.8918
rfemur -12.8148 6.85098 22.1167
rtibia 35.0867
rfoot -21.1542 -8.29132
rtoes 1.10313
lfemur -3.11697 6.93501 -15.5571
ltibia 22.3732
lfoot -18.1432 10.025
ltoes -3.04553
1061
root 5.60104 16.4746 0.290421 176.345 -43.5416 -175.974
lowerback -0.676279 -1.11525 2.86081
upperback 3.91341 -1.72542 1.07261
thorax 4.36647 -0.822942 -0.574251
lowerneck -11.3271 0.378853 0.940316
upperneck 32.0913 -1.00313 -1.96905
head 12.4742 -1.26312 -1.20532
rclavicle -4.92862e-014 1.31198e-014
rhumerus -39.7875 24.3982 -95.4495
rradius 92.4906
rwrist -54.7444
rhand -19.3318 -13.6894
rfingers 7.12502
rthumb 6.98489 -43.5542
lclavicle -4.92862e-014 1.31198e-014
lhumerus -27.0118 5.9006 82.8573
lradius 17.8946
lwrist 8.68297
lhand -14.7475 10.2369
lfingers 7.12502
lthumb 11.4083 39.9065
rfemur -12.8091 6.83494 22.0736
rtibia 35.096
rfoot -21.1799 -8.33239
rtoes 1.08363
lfemur -3.12573 6.92365 -15.6014
ltibia 22.3644
lfoot -18.1342 9.97937
ltoes -3.04759
1062
root 5.59702 16.4749 0.293091 176.365 -43.6207 -175.995
lowerback -0.68344 -1.12399 2.81778
upperback 3.91131 -1.73448 1.05407
thorax 4.36853 -0.828254 -0.569849
lowerneck -11.3205 0.363867 0.918008
upperneck 32.0975 -1.02757 -1.94677
head 12.4752 -1.27405 -1.19634
rclavicle 9.32176e-014 -2.03754e-014
rhumerus -39.8099 24.3643 -95.4553
rradius 92.4917
rwrist -54.7448
rhand -19.3612 -13.7105
rfingers 7.12502
rthumb 6.95652 -43.5762
lclavicle 9.32176e-014 -2.03754e-014
lhumerus -27.0827 5.93879 82.7893
lradius 17.9193
lwrist 8.70353
lhand -14.7441 10.2539
lfingers 7.12502
lthumb 11.4116 39.9233
rfemur -12.8091 6.81756 22.036
rtibia 35.1113
rfoot -21.2117 -8.37553
rtoes 1.0757
lfemur -3.13456 6.91352 -15.6392
ltibia 22.345
lfoot -18.117 9.92629
ltoes -3.05564
